<svg xmlns="http://www.w3.org/2000/svg" viewBox="0 0 160 160" width="160" height="160">
  <!-- ことだまの島の ねこ -->
  <!-- 耳 -->
  <polygon points="35,55 45,15 70,45" fill="#f5a623"/>
  <polygon points="125,55 115,15 90,45" fill="#f5a623"/>
  <polygon points="42,48 48,26 62,44" fill="#f8c471"/>
  <polygon points="118,48 112,26 98,44" fill="#f8c471"/>
  <!-- 顔 -->
  <ellipse cx="80" cy="85" rx="52" ry="48" fill="#f5a623"/>
  <!-- しま模様 -->
  <path d="M60 40 q4 12 0 20" stroke="#d68910" stroke-width="5" fill="none" stroke-linecap="round"/>
  <path d="M80 36 q4 12 0 22" stroke="#d68910" stroke-width="5" fill="none" stroke-linecap="round"/>
  <path d="M100 40 q-4 12 0 20" stroke="#d68910" stroke-width="5" fill="none" stroke-linecap="round"/>
  <!-- 目 -->
  <ellipse cx="60" cy="82" rx="7" ry="10" fill="#2c3e50"/>
  <ellipse cx="100" cy="82" rx="7" ry="10" fill="#2c3e50"/>
  <circle cx="62" cy="79" r="2.5" fill="#fff"/>
  <circle cx="102" cy="79" r="2.5" fill="#fff"/>
  <!-- 鼻と口 -->
  <polygon points="80,95 74,89 86,89" fill="#e74c3c"/>
  <path d="M80 95 q0 8 -10 9" stroke="#2c3e50" stroke-width="3" fill="none" stroke-linecap="round"/>
  <path d="M80 95 q0 8 10 9" stroke="#2c3e50" stroke-width="3" fill="none" stroke-linecap="round"/>
  <!-- ひげ -->
  <path d="M40 92 L14 86" stroke="#2c3e50" stroke-width="2.5" stroke-linecap="round"/>
  <path d="M40 100 L14 102" stroke="#2c3e50" stroke-width="2.5" stroke-linecap="round"/>
  <path d="M120 92 L146 86" stroke="#2c3e50" stroke-width="2.5" stroke-linecap="round"/>
  <path d="M120 100 L146 102" stroke="#2c3e50" stroke-width="2.5" stroke-linecap="round"/>
  <!-- ほっぺ -->
  <circle cx="48" cy="98" r="7" fill="#f8c471" opacity="0.8"/>
  <circle cx="112" cy="98" r="7" fill="#f8c471" opacity="0.8"/>
</svg>
